<svg id="Layer_1" data-name="Layer 1" xmlns="http://www.w3.org/2000/svg" xmlns:xlink="http://www.w3.org/1999/xlink" viewBox="0 0 600 600"><defs><clipPath id="clip-path"><polyline points="171.44 350.48 115.03 294.01 90.3 319.53 171.81 401.14 346.22 224.01 321.11 198.86 171.44 350.48" fill="none"/></clipPath><clipPath id="clip-path-2"><polyline points="156.9 335.94 100.5 279.47 75.77 304.99 157.27 386.61 331.69 209.46 306.57 184.32 156.9 335.94" fill="none"/></clipPath><clipPath id="clip-path-3"><path d="M316.28-2386.94a23.24,23.24,0,0,0-23.23,23.25V-2159a23.23,23.23,0,0,0,23.23,23.25H688.17A23.24,23.24,0,0,0,711.41-2159v-204.67a23.24,23.24,0,0,0-23.24-23.25H316.28" fill="none" clip-rule="evenodd"/></clipPath><clipPath id="clip-path-4"><polyline points="418.94 -2190.1 686.23 -2190.1 686.23 -2221.09 418.94 -2221.09 418.94 -2190.1" fill="none" clip-rule="evenodd"/></clipPath><clipPath id="clip-path-5"><polyline points="467.54 -2233.73 686.23 -2233.73 686.23 -2264.73 467.54 -2264.73 467.54 -2233.73" fill="none" clip-rule="evenodd"/></clipPath><clipPath id="clip-path-6"><path d="M680.42-2164.38H652.8a5.82,5.82,0,0,1-5.81-5.83,5.8,5.8,0,0,1,5.81-5.8h27.62a5.8,5.8,0,0,1,5.81,5.8,5.82,5.82,0,0,1-5.81,5.83" fill="none" clip-rule="evenodd"/></clipPath><clipPath id="clip-path-7"><path d="M623-2164.38H595.4a5.82,5.82,0,0,1-5.81-5.83,5.8,5.8,0,0,1,5.81-5.8H623a5.8,5.8,0,0,1,5.8,5.8,5.82,5.82,0,0,1-5.8,5.83" fill="none" clip-rule="evenodd"/></clipPath><clipPath id="clip-path-8"><path d="M565.61-2164.38H538a5.83,5.83,0,0,1-5.82-5.83A5.81,5.81,0,0,1,538-2176h27.61a5.8,5.8,0,0,1,5.81,5.8,5.82,5.82,0,0,1-5.81,5.83" fill="none" clip-rule="evenodd"/></clipPath><clipPath id="clip-path-9"><path d="M450.81-2164.38H423.19a5.82,5.82,0,0,1-5.81-5.83,5.8,5.8,0,0,1,5.81-5.8h27.62a5.81,5.81,0,0,1,5.81,5.8,5.83,5.83,0,0,1-5.81,5.83" fill="none" clip-rule="evenodd"/></clipPath><clipPath id="clip-path-10"><path d="M508.21-2164.38H480.6a5.83,5.83,0,0,1-5.82-5.83,5.81,5.81,0,0,1,5.82-5.8h27.61a5.8,5.8,0,0,1,5.81,5.8,5.82,5.82,0,0,1-5.81,5.83" fill="none" clip-rule="evenodd"/></clipPath></defs><title>Artboard 42</title><path d="M409.62,300c0,113.12-91.7,204.81-204.81,204.81S0,413.12,0,300,91.69,95.19,204.81,95.19,409.62,186.88,409.62,300" fill="#48ae64"/><path d="M587,308.24h-6.5a7.87,7.87,0,0,0-7.6,8.12v1.4a7.87,7.87,0,0,0,7.6,8.12H587a7.88,7.88,0,0,0,7.61-8.12v-1.4a7.88,7.88,0,0,0-7.61-8.12" fill="#e5d3a2"/><path d="M592.28,268.89h-185q1.23,8.06,1.82,16.28H592.28a7.52,7.52,0,0,0,7.72-7.7v-.6a7.76,7.76,0,0,0-7.72-8" fill="#e5d3a2"/><path d="M407.27,268.89H302l-16,16.28h123.1q-.58-8.24-1.82-16.28" fill="#a9b96f"/><path d="M550.76,308.24H409.46q-.33,8.24-1.29,16.28H550.76c4.27,0,7.18-3.41,7.18-8v-.61c0-4.56-2.91-7.7-7.18-7.7" fill="#e5d3a2"/><path d="M409.46,308.24H263.28l-16,16.28H408.17q1-8.06,1.29-16.28" fill="#a9b96f"/><path d="M467.73,346.23H404.38q-2.07,9-4.91,17.64h68.26c4.26,0,7.45-3.69,7.45-8.24V355c0-4.56-3.19-8.79-7.45-8.79" fill="#e5d3a2"/><path d="M404.38,346.23H225.87l-17.36,17.64h191q2.83-8.65,4.91-17.64" fill="#a9b96f"/><g clip-path="url(#clip-path)"><polyline points="321.11 198.86 171.44 350.48 115.03 294.01 90.3 319.53 171.81 401.14 208.51 363.87 176.68 363.87 193.59 346.23 225.88 346.23 247.25 324.52 214.4 324.52 230.02 308.24 263.28 308.24 285.99 285.17 252.13 285.17 267.74 268.89 302.02 268.89 346.22 224.01 321.11 198.86" fill="#36914f"/><polyline points="302.02 268.89 267.74 268.89 252.13 285.17 285.99 285.17 302.02 268.89" fill="#629654"/><polyline points="263.28 308.24 230.02 308.24 214.4 324.52 247.25 324.52 263.28 308.24" fill="#629654"/><polyline points="225.88 346.23 193.59 346.23 176.68 363.87 208.51 363.87 225.88 346.23" fill="#629654"/></g><polygon points="156.9 335.94 100.5 279.47 75.77 305 157.28 386.6 331.68 209.47 306.57 184.32 156.9 335.94" fill="#fff"/><g clip-path="url(#clip-path-2)"><rect x="68.1" y="176.66" width="271.24" height="217.6" fill="#fff"/></g><g clip-path="url(#clip-path-6)"><rect x="-5569.38" y="-3581.95" width="19445.43" height="3703.89" fill="#b92a45"/></g><g clip-path="url(#clip-path-7)"><rect x="-5569.38" y="-3581.95" width="19445.43" height="3703.89" fill="#b92a45"/></g><g clip-path="url(#clip-path-8)"><rect x="-5569.38" y="-3581.95" width="19445.43" height="3703.89" fill="#b92a45"/></g><g clip-path="url(#clip-path-9)"><rect x="-5569.38" y="-3581.95" width="19445.43" height="3703.89" fill="#b92a45"/></g><g clip-path="url(#clip-path-10)"><rect x="-5569.38" y="-3581.95" width="19445.43" height="3703.89" fill="#b92a45"/></g></svg>