<svg id="Layer_1" data-name="Layer 1" xmlns="http://www.w3.org/2000/svg" xmlns:xlink="http://www.w3.org/1999/xlink" viewBox="0 0 600 600"><defs><clipPath id="clip-path"><path d="M175.6,434.79a23.25,23.25,0,1,1,23.24,23.27,23.24,23.24,0,0,1-23.24-23.27m5.68-211.95h1.91l35.28,34.88V388.3H181.28V222.84M189.69,104,2.16,483.86c-5.64,11.43.16,20.67,12.9,20.67H384.7c12.78,0,18.53-9.26,12.9-20.67L210.1,104c-2.83-5.72-6.53-8.57-10.21-8.57s-7.4,2.85-10.2,8.57" fill="none"/></clipPath><clipPath id="clip-path-2"><path d="M972.28-2386.94a23.24,23.24,0,0,0-23.23,23.25V-2159a23.23,23.23,0,0,0,23.23,23.25h371.89a23.24,23.24,0,0,0,23.24-23.25v-204.67a23.24,23.24,0,0,0-23.24-23.25H972.28" fill="none" clip-rule="evenodd"/></clipPath><clipPath id="clip-path-3"><polyline points="1074.94 -2190.1 1342.23 -2190.1 1342.23 -2221.09 1074.94 -2221.09 1074.94 -2190.1" fill="none" clip-rule="evenodd"/></clipPath><clipPath id="clip-path-4"><polyline points="1123.54 -2233.73 1342.23 -2233.73 1342.23 -2264.73 1123.54 -2264.73 1123.54 -2233.73" fill="none" clip-rule="evenodd"/></clipPath><clipPath id="clip-path-5"><path d="M1336.42-2164.38H1308.8a5.82,5.82,0,0,1-5.81-5.83,5.8,5.8,0,0,1,5.81-5.8h27.62a5.8,5.8,0,0,1,5.81,5.8,5.82,5.82,0,0,1-5.81,5.83" fill="none" clip-rule="evenodd"/></clipPath><clipPath id="clip-path-6"><path d="M1279-2164.38H1251.4a5.82,5.82,0,0,1-5.81-5.83,5.8,5.8,0,0,1,5.81-5.8H1279a5.8,5.8,0,0,1,5.8,5.8,5.82,5.82,0,0,1-5.8,5.83" fill="none" clip-rule="evenodd"/></clipPath><clipPath id="clip-path-7"><path d="M1221.61-2164.38H1194a5.83,5.83,0,0,1-5.82-5.83,5.81,5.81,0,0,1,5.82-5.8h27.61a5.8,5.8,0,0,1,5.81,5.8,5.82,5.82,0,0,1-5.81,5.83" fill="none" clip-rule="evenodd"/></clipPath><clipPath id="clip-path-8"><path d="M1106.81-2164.38h-27.62a5.82,5.82,0,0,1-5.81-5.83,5.8,5.8,0,0,1,5.81-5.8h27.62a5.81,5.81,0,0,1,5.81,5.8,5.83,5.83,0,0,1-5.81,5.83" fill="none" clip-rule="evenodd"/></clipPath><clipPath id="clip-path-9"><path d="M1164.21-2164.38H1136.6a5.83,5.83,0,0,1-5.82-5.83,5.81,5.81,0,0,1,5.82-5.8h27.61a5.8,5.8,0,0,1,5.81,5.8,5.82,5.82,0,0,1-5.81,5.83" fill="none" clip-rule="evenodd"/></clipPath></defs><title>Artboard 41</title><path d="M175.6,434.79a23.25,23.25,0,1,1,23.24,23.27,23.24,23.24,0,0,1-23.24-23.27m5.68-211.95h1.91l35.28,34.88V388.3H181.28V222.84M189.69,104,2.16,483.86c-5.64,11.43.16,20.67,12.9,20.67H384.7c12.78,0,18.53-9.26,12.9-20.67L210.1,104c-2.83-5.72-6.53-8.57-10.21-8.57s-7.4,2.85-10.2,8.57" fill="#e77d8e"/><g clip-path="url(#clip-path)"><polyline points="-9.3 86.18 409.05 86.18 409.05 513.82 -9.3 513.82 -9.3 86.18" fill="#e77d8e"/></g><path d="M586.88,310.71h-6.54a7.93,7.93,0,0,0-7.66,8.17v1.41a7.92,7.92,0,0,0,7.66,8.17h6.54a7.91,7.91,0,0,0,7.65-8.17v-1.41a7.92,7.92,0,0,0-7.65-8.17" fill="#e2f3fd"/><path d="M592.22,271.11H292.57l8.09,16.38H592.22a7.57,7.57,0,0,0,7.78-7.75v-.61a7.81,7.81,0,0,0-7.78-8" fill="#e2f3fd"/><polyline points="292.57 271.11 234.91 271.11 234.91 287.49 300.66 287.49 292.57 271.11" fill="#dac8d8"/><path d="M550.44,310.71l-238.1.45,7.87,15.94H550.44c4.29,0,7.22-3.45,7.22-8v-.61c0-4.58-2.93-7.75-7.22-7.75" fill="#e2f3fd"/><polyline points="312.34 311.16 234.91 311.3 234.91 327.1 320.21 327.1 312.34 311.16" fill="#dac8d8"/><path d="M331,348.86l8.81,17.84H466.85c4.3,0,7.5-3.71,7.5-8.29v-.61c0-4.59-3.2-8.85-7.5-8.85L331,348.86" fill="#e2f3fd"/><polyline points="234.91 348.79 234.91 366.7 339.76 366.7 330.95 348.86 234.91 348.79" fill="#dac8d8"/><path d="M207.33,413.15a23.27,23.27,0,0,0-.54,43.51,23.26,23.26,0,0,0,.54-43.51" fill="#cc8a94"/><path d="M215.28,411.75a23.28,23.28,0,0,0-7.95,1.4,23.25,23.25,0,0,1,14.76,21.64h0a23.28,23.28,0,0,1-15.3,21.87,23.25,23.25,0,1,0,8.49-44.91" fill="#c24f62"/><polyline points="197.72 237.21 197.72 388.3 218.47 388.3 218.47 257.72 197.72 237.21" fill="#cc8a94"/><polyline points="199.63 223.04 197.72 223.04 197.72 237.21 218.47 257.72 218.47 388.3 197.72 388.3 197.72 388.5 234.91 388.5 234.91 366.7 218.47 366.7 218.47 348.78 234.91 348.79 234.91 327.1 218.56 327.1 218.56 311.33 234.91 311.3 234.91 287.49 218.47 287.49 218.47 271.11 234.91 271.11 234.91 257.91 199.63 223.04" fill="#c24f62"/><polyline points="234.91 271.11 218.47 271.11 218.47 287.49 234.91 287.49 234.91 271.11" fill="#bc7183"/><polyline points="234.91 311.3 218.56 311.33 218.56 327.1 234.91 327.1 234.91 311.3" fill="#bc7183"/><polyline points="218.47 348.78 218.47 366.7 234.91 366.7 234.91 348.79 218.47 348.78" fill="#bc7183"/><path d="M175.6,435a23.25,23.25,0,1,1,23.24,23.27A23.25,23.25,0,0,1,175.6,435" fill="#fff"/><polygon points="181.28 223.04 183.19 223.04 218.47 257.91 218.47 388.5 181.28 388.5 181.28 223.04" fill="#fff"/><g clip-path="url(#clip-path-5)"><rect x="-4913.38" y="-3581.95" width="19445.43" height="3703.89" fill="#b92a45"/></g><g clip-path="url(#clip-path-6)"><rect x="-4913.38" y="-3581.95" width="19445.43" height="3703.89" fill="#b92a45"/></g><g clip-path="url(#clip-path-7)"><rect x="-4913.38" y="-3581.95" width="19445.43" height="3703.89" fill="#b92a45"/></g><g clip-path="url(#clip-path-8)"><rect x="-4913.38" y="-3581.95" width="19445.43" height="3703.89" fill="#b92a45"/></g><g clip-path="url(#clip-path-9)"><rect x="-4913.38" y="-3581.95" width="19445.43" height="3703.89" fill="#b92a45"/></g></svg>