<?xml version="1.0" encoding="UTF-8"?>
<svg width="24px" height="24px" viewBox="0 0 24 24" version="1.1" xmlns="http://www.w3.org/2000/svg" xmlns:xlink="http://www.w3.org/1999/xlink">
    <!-- Generator: Sketch 52.6 (67491) - http://www.bohemiancoding.com/sketch -->
    <title>Icons/26/BBVA-White/get-out-icon</title>
    <desc>Created with Sketch.</desc>
    <defs>
        <path d="M11.0769231,0 C4.95930739,0 -4.09928501e-16,4.95930739 0,11.0769231 C4.09928501e-16,17.1945388 4.95930739,22.1538462 11.0769231,22.1538462 C17.1945388,22.1538462 22.1538462,17.1945388 22.1538462,11.0769231 C22.1538462,4.95930739 17.1945388,0 11.0769231,0 L11.0769231,0 L11.0769231,0 L11.0769231,0 Z M11.5384615,6.92307692 L12.9230769,5.53846154 L18.4615385,11.0769231 L12.9230769,16.6153846 L11.5384615,15.2307692 L14.7692308,12 L3.69230769,12 L5.53846154,10.1538462 L14.7692308,10.1538462 L11.5384615,6.92307692 Z" id="path-1"></path>
    </defs>
    <g id="a" stroke="none" stroke-width="1" fill="none" fill-rule="evenodd">
        <g id="Desktop" transform="translate(-485.000000, -701.000000)">
            <g id="Icons/26/BBVA-White/get-out-icon" transform="translate(497.000000, 713.000000) rotate(-180.000000) translate(-497.000000, -713.000000) translate(485.000000, 701.000000)">
                <g id="Color/BBVA-White" transform="translate(0.923077, 0.923077)">
                    <mask id="mask-2" fill="white">
                        <use xlink:href="#path-1"></use>
                    </mask>
                    <use id="Mask" fill="#FFFFFF" xlink:href="#path-1"></use>
                    <g id="Color/BBVA-Yellow" mask="url(#mask-2)" fill="#F8CD51">
                        <g transform="translate(-0.923077, -0.923077)">
                            <rect x="0" y="0" width="24" height="24"></rect>
                        </g>
                    </g>
                </g>
            </g>
        </g>
    </g>
</svg>