<?xml version="1.0" encoding="utf-8"?>
<!-- Generator: Adobe Illustrator 21.0.0, SVG Export Plug-In . SVG Version: 6.00 Build 0)  -->
<svg version="1.1" id="Capa_1" xmlns="http://www.w3.org/2000/svg" xmlns:xlink="http://www.w3.org/1999/xlink" x="0px" y="0px"
	 viewBox="0 0 600 600" style="enable-background:new 0 0 600 600;" xml:space="preserve">
<style type="text/css">
	.st0{fill:#F6B27F;}
	.st1{clip-path:url(#SVGID_2_);}
	.st2{fill:#D2844C;}
	.st3{fill:#2A7BB2;}
	.st4{fill:#B2B7B9;}
	.st5{fill:#9C9E9D;}
	.st6{fill:#BDBDBD;}
	.st7{fill:#D3D3D3;}
	.st8{fill:#FFFFFF;}
	.st9{clip-path:url(#SVGID_4_);}
	.st10{fill:#E9E9E9;}
	.st11{fill:#E57D8E;}
	.st12{fill:#88C799;}
</style>
<g>
	<g>
		<path class="st0" d="M482.6,287.3c0,92.3-74.8,167.1-167.1,167.1s-167.1-74.8-167.1-167.1s74.8-167.1,167.1-167.1
			S482.6,195,482.6,287.3"/>
	</g>
	<g>
		<defs>
			<path id="SVGID_1_" d="M482.6,287.3c0,92.3-74.8,167.1-167.1,167.1s-167.1-74.8-167.1-167.1s74.8-167.1,167.1-167.1
				S482.6,195,482.6,287.3"/>
		</defs>
		<clipPath id="SVGID_2_">
			<use xlink:href="#SVGID_1_"  style="overflow:visible;"/>
		</clipPath>
		<g class="st1">
			<path class="st2" d="M405.1,394.6H187.4c30.6,36.5,76.6,59.8,128,59.8c33,0,63.7-9.6,89.6-26V394.6 M405.1,373.6H182.7v12.2
				h222.4V373.6 M405.1,352.6H182.7v12.2h222.4V352.6 M405.1,194.3H182.7v149.4h222.4V194.3"/>
		</g>
	</g>
	<g>
		<path class="st3" d="M180.5,385.7H78.7c-2.4,0-4.4,2-4.4,4.4v0c0,2.4,2,4.4,4.4,4.4h108.7C185,391.7,182.7,388.8,180.5,385.7
			 M450.5,385.7L450.5,385.7c-2.2,3-4.5,6-6.9,8.8h6.9c2.4,0,4.4-2,4.4-4.4v0C454.9,387.7,452.9,385.7,450.5,385.7"/>
	</g>
	<g>
		<path class="st4" d="M182.7,385.7h-2.2c2.2,3,4.5,6,6.9,8.8l0,0c-1.6-1.9-3.2-3.9-4.7-5.9V385.7 M450.5,385.7h-45.4v8.8h38.4
			C445.9,391.7,448.3,388.8,450.5,385.7"/>
	</g>
	<g>
		<path class="st5" d="M405.1,385.7H182.7v3c1.5,2,3.1,4,4.7,5.9h217.7V385.7"/>
	</g>
	<g>
		<path class="st3" d="M158.2,343.7h-8.7c-2.4,0-4.4,2-4.4,4.4v0c0,2.4,2,4.4,4.4,4.4h12.1C160.4,349.6,159.3,346.7,158.2,343.7
			 M521.3,343.7h-48.5c-1.1,3-2.2,5.9-3.5,8.8h51.9c2.4,0,4.4-2,4.4-4.4v0C525.7,345.7,523.7,343.7,521.3,343.7"/>
	</g>
	<g>
		<path class="st4" d="M182.7,343.7h-24.5c1.1,3,2.2,5.9,3.5,8.8h21.1V343.7 M472.8,343.7h-67.7v8.8h64.2
			C470.6,349.6,471.7,346.7,472.8,343.7"/>
	</g>
	<g>
		<polyline class="st5" points="405.1,343.7 182.7,343.7 182.7,352.6 405.1,352.6 405.1,343.7 		"/>
	</g>
	<g>
		<path class="st3" d="M167.4,364.7h-41.1c-2.4,0-4.4,2-4.4,4.4v0c0,2.4,2,4.4,4.4,4.4h46.1C170.7,370.7,169,367.7,167.4,364.7
			 M498,364.7h-34.5c-1.6,3-3.2,6-5,8.9H498c2.4,0,4.4-2,4.4-4.4v0C502.5,366.7,500.5,364.7,498,364.7"/>
	</g>
	<g>
		<path class="st4" d="M182.7,364.7h-15.3c1.6,3,3.2,6,5,8.9h10.3V364.7 M463.6,364.7h-58.5v8.9h53.5
			C460.3,370.7,462,367.7,463.6,364.7"/>
	</g>
	<g>
		<polyline class="st5" points="405.1,364.7 182.7,364.7 182.7,373.6 405.1,373.6 405.1,364.7 		"/>
	</g>
	<g>
		<path class="st3" d="M519.1,364.7h-3.5c-2.4,0-4.4,1.9-4.4,4.3v0.2c0,2.4,2,4.3,4.4,4.3h3.5c2.4,0,4.4-1.9,4.4-4.3v-0.2
			C523.5,366.7,521.5,364.7,519.1,364.7"/>
	</g>
	<g>
		<path class="st3" d="M108.7,364.7h-3.5c-2.4,0-4.4,1.9-4.4,4.3v0.2c0,2.4,1.9,4.3,4.4,4.3h3.5c2.4,0,4.4-1.9,4.4-4.3v-0.2
			C113,366.7,111.1,364.7,108.7,364.7"/>
	</g>
	<g>
		<rect x="167.2" y="184.4" class="st6" width="222.4" height="295.4"/>
	</g>
	<g>
		<rect x="155.1" y="177.7" class="st7" width="222.4" height="295.4"/>
	</g>
	<g>
		<rect x="145.1" y="171.1" class="st8" width="222.4" height="295.4"/>
	</g>
	<g>
		<defs>
			<polyline id="SVGID_3_" points="367.5,466.5 145.1,466.5 145.1,171.1 367.5,171.1 367.5,466.5 			"/>
		</defs>
		<clipPath id="SVGID_4_">
			<use xlink:href="#SVGID_3_"  style="overflow:visible;"/>
		</clipPath>
		<g class="st9">
			<polygon class="st10" points="121.9,479.8 430.6,171.1 449.4,486.4 256.3,517.4 			"/>
		</g>
	</g>
	<g>
		<path class="st7" d="M310,248c0,2.1-1.7,3.9-3.9,3.9H176.6c-2.1,0-3.9-1.7-3.9-3.9c0-2.1,1.7-3.9,3.9-3.9h129.4
			C308.2,244.1,310,245.9,310,248z"/>
	</g>
	<g>
		<path class="st7" d="M310,271.2c0,2.1-1.7,3.9-3.9,3.9H176.6c-2.1,0-3.9-1.7-3.9-3.9s1.7-3.9,3.9-3.9h129.4
			C308.2,267.4,310,269.1,310,271.2z"/>
	</g>
	<g>
		<path class="st7" d="M310,295.6c0,2.1-1.7,3.9-3.9,3.9H176.6c-2.1,0-3.9-1.7-3.9-3.9c0-2.1,1.7-3.9,3.9-3.9h129.4
			C308.2,291.7,310,293.4,310,295.6z"/>
	</g>
	<g>
		<path class="st7" d="M310,318.8c0,2.1-1.7,3.9-3.9,3.9H176.6c-2.1,0-3.9-1.7-3.9-3.9c0-2.1,1.7-3.9,3.9-3.9h129.4
			C308.2,314.9,310,316.7,310,318.8z"/>
	</g>
	<g>
		<path class="st11" d="M263.5,392c0,2.6-2.1,4.8-4.8,4.8h-80c-2.6,0-4.8-2.1-4.8-4.8v-0.4c0-2.6,2.1-4.8,4.8-4.8h80
			c2.6,0,4.8,2.1,4.8,4.8V392z"/>
	</g>
	<g>
		<path class="st12" d="M340.4,419.2h-3.7c0,5.3-2.2,10.1-5.6,13.6c-3.5,3.5-8.3,5.6-13.6,5.6c-5.3,0-10.1-2.2-13.6-5.6
			c-3.5-3.5-5.6-8.3-5.6-13.6c0-5.3,2.2-10.1,5.6-13.6c3.5-3.5,8.3-5.6,13.6-5.6c5.3,0,10.1,2.2,13.6,5.6c3.5,3.5,5.6,8.3,5.6,13.6
			H340.4h3.7c0-14.7-11.9-26.6-26.6-26.6c-14.7,0-26.6,11.9-26.6,26.6c0,14.7,11.9,26.6,26.6,26.6c14.7,0,26.6-11.9,26.6-26.6H340.4
			z"/>
	</g>
	<g>
		<rect x="176.1" y="196.6" class="st6" width="89.6" height="22.1"/>
	</g>
</g>
</svg>
